# xmcd CD database file
#
# Track frame offsets:
#	150
#	14652
#	27665
#	42868
#	56194
#	71172
#	84610
#	99502
#	113258
#	128448
#	139130
#	149141
#	163735
#	178043
#	192045
#	206420
#	220533
#	235197
#	249854
#	264459
#	279011
#	291470
#	306113
#	321557
#
# Disc length: 4475 seconds
#
# Revision: 0
# Processed by: cddbd v1.5.2PL0 Copyright (c) Steve Scherf et al.
# Submitted via: CDex 1.50beta10
#
DISCID=66117918
DTITLE=Ella Fitzgerald - The Complete Masters CD10
DYEAR=1949
DGENRE=Jazz
TTITLE0=A Man Wrote a Song
TTITLE1=Fairy Tales
TTITLE2=I Gotta Have My Baby Back
TTITLE3=Baby, Won't You Say You Love Me
TTITLE4=Don'cha Go 'Way Mad
TTITLE5=Solid as a Rock
TTITLE6=I've Got the World on a String
TTITLE7=Sugarfoot Rag
TTITLE8=Peas and Rice
TTITLE9=M.I.S.S.I.S.S.I.P.P.I.
TTITLE10=I Don't Want the World
TTITLE11=Ain't Nobody's Business But My Own
TTITLE12=I'll Never Be Free
TTITLE13=Dream a Little Dream of Me
TTITLE14=Can Anyone Explain?
TTITLE15=Looking for a Boy
TTITLE16=My One and Only
TTITLE17=How Long Has This Been Going On?
TTITLE18=I've Got a Crush On You
TTITLE19=But Not For Me
TTITLE20=Soon
TTITLE21=Someone to Watch Over Me
TTITLE22=Maybe
TTITLE23=Santa Claus Got Stuck in My Chimney
EXTD=YEAR: 1949
EXTT0=
EXTT1=
EXTT2=
EXTT3=
EXTT4=
EXTT5=
EXTT6=
EXTT7=
EXTT8=
EXTT9=
EXTT10=
EXTT11=
EXTT12=
EXTT13=
EXTT14=
EXTT15=
EXTT16=
EXTT17=
EXTT18=
EXTT19=
EXTT20=
EXTT21=
EXTT22=
EXTT23=
PLAYORDER=
